<?xml version="1.0" encoding="UTF-8" standalone="no"?>
<svg
   xmlns:dc="http://purl.org/dc/elements/1.1/"
   xmlns:cc="http://creativecommons.org/ns#"
   xmlns:rdf="http://www.w3.org/1999/02/22-rdf-syntax-ns#"
   xmlns:svg="http://www.w3.org/2000/svg"
   xmlns="http://www.w3.org/2000/svg"
   xmlns:sodipodi="http://sodipodi.sourceforge.net/DTD/sodipodi-0.dtd"
   xmlns:inkscape="http://www.inkscape.org/namespaces/inkscape"
   version="1.0"
   x="0px"
   y="0px"
   viewBox="0 0 50.938 100"
   enable-background="new 0 0 50.938 100"
   xml:space="preserve"
   id="svg2"
   inkscape:version="0.91 r13725"
   sodipodi:docname="iphone.svg"
   width="50.938"
   height="100"><metadata
     id="metadata14"><rdf:RDF><cc:Work
         rdf:about=""><dc:format>image/svg+xml</dc:format><dc:type
           rdf:resource="http://purl.org/dc/dcmitype/StillImage" /><dc:title></dc:title></cc:Work></rdf:RDF></metadata><defs
     id="defs12" /><sodipodi:namedview
     pagecolor="#ffffff"
     bordercolor="#666666"
     borderopacity="1"
     objecttolerance="10"
     gridtolerance="10"
     guidetolerance="10"
     inkscape:pageopacity="0"
     inkscape:pageshadow="2"
     inkscape:window-width="1195"
     inkscape:window-height="706"
     id="namedview10"
     showgrid="false"
     inkscape:zoom="4.9091917"
     inkscape:cx="47.448092"
     inkscape:cy="51.943378"
     inkscape:window-x="55"
     inkscape:window-y="0"
     inkscape:window-maximized="0"
     inkscape:current-layer="svg2" /><rect
     style="fill:#f9f9f9;fill-opacity:1;stroke:none"
     id="rect4150"
     width="44.202797"
     height="88.812988"
     x="2.8517933"
     y="7.3167171" /><rect
     style="fill:#135fb8;fill-opacity:1;stroke:none"
     id="rect3344"
     width="47.054588"
     height="7.3331828"
     x="1.8463376"
     y="17.094296" /><path
     d="M 43.101,0.1 7.837,0.1 C 3.509,0.1 0,3.608 0,7.936 l 0,84.327 c 0,4.328 3.509,7.837 7.837,7.837 l 35.264,0 c 4.328,0 7.837,-3.509 7.837,-7.837 l 0,-84.327 C 50.938,3.608 47.429,0.1 43.101,0.1 Z m -21.486,8.315 7.708,0 c 0.576,0 1.043,0.467 1.043,1.044 0,0.576 -0.467,1.043 -1.043,1.043 l -7.708,0 c -0.577,0 -1.044,-0.467 -1.044,-1.043 0,-0.577 0.467,-1.044 1.044,-1.044 z m -4.492,-0.4 c 0.687,0 1.244,0.557 1.244,1.244 0,0.687 -0.557,1.244 -1.244,1.244 -0.687,0 -1.244,-0.557 -1.244,-1.244 0,-0.687 0.558,-1.244 1.244,-1.244 z m 8.346,87.857 c -2.705,0 -4.898,-2.192 -4.898,-4.897 0,-2.706 2.193,-4.898 4.898,-4.898 2.705,0 4.897,2.192 4.897,4.898 0,2.705 -2.192,4.897 -4.897,4.897 z m 21.55,-13.283 -43.1,0 0,-64.978 43.1,0 0,64.978 z"
     id="path4"
     inkscape:connector-curvature="0"
     style="fill:#353638;fill-opacity:1" /><text
     xml:space="preserve"
     style="font-style:normal;font-weight:normal;font-size:43.85284424px;line-height:125%;font-family:sans-serif;letter-spacing:0px;word-spacing:0px;fill:#000000;fill-opacity:1;stroke:none;stroke-width:1px;stroke-linecap:butt;stroke-linejoin:miter;stroke-opacity:1"
     x="15.989906"
     y="21.997885"
     id="text4146"
     sodipodi:linespacing="125%"><tspan
       sodipodi:role="line"
       id="tspan4148"
       x="15.989906"
       y="21.997885"
       style="font-style:italic;font-variant:normal;font-weight:normal;font-stretch:normal;font-size:2.74080276px;font-family:Roboto;-inkscape-font-specification:'Roboto Italic';fill:#ffffff">#SISCOMANDO</tspan></text>
<circle
     style="fill:#e91e63;fill-opacity:0.70949719;stroke:none"
     id="path4154"
     cx="9.6441927"
     cy="30.729351"
     r="3.2591922" /><g
     id="g4160"
     transform="translate(0.40000003,0)"
     style="fill:#e6e6e6"><rect
       y="28.312704"
       x="14.666367"
       height="1.8332957"
       width="26.684637"
       id="rect4156"
       style="fill:#e6e6e6;fill-opacity:1;stroke:none" /><rect
       style="fill:#e6e6e6;fill-opacity:1;stroke:none"
       id="rect4158"
       width="22.610647"
       height="1.8332957"
       x="14.666367"
       y="31.312704" /></g><circle
     r="3.2591922"
     cy="42.729351"
     cx="9.6441927"
     id="circle4164"
     style="fill:#ffd42a;fill-opacity:0.70949719;stroke:none" /><g
     transform="translate(0.40000003,12)"
     id="g4166"
     style="fill:#e6e6e6"><rect
       style="fill:#e6e6e6;fill-opacity:1;stroke:none"
       id="rect4168"
       width="19.584999"
       height="1.8332957"
       x="14.666367"
       y="28.312704" /><rect
       y="31.312704"
       x="14.666367"
       height="1.8332957"
       width="27.611002"
       id="rect4170"
       style="fill:#e6e6e6;fill-opacity:1;stroke:none" /></g><circle
     style="fill:#8d5fd3;fill-opacity:0.70949719;stroke:none"
     id="circle4172"
     cx="9.6441927"
     cy="54.729351"
     r="3.2591922" /><g
     style="fill:#e6e6e6"
     id="g4174"
     transform="translate(0.40000003,24)"><rect
       y="28.312704"
       x="14.666367"
       height="1.8332957"
       width="19.584999"
       id="rect4176"
       style="fill:#e6e6e6;fill-opacity:1;stroke:none" /><rect
       style="fill:#e6e6e6;fill-opacity:1;stroke:none"
       id="rect4178"
       width="27.611002"
       height="1.8332957"
       x="14.666367"
       y="31.312704" /></g><g
     transform="translate(0.40000003,30)"
     id="g4180"
     style="fill:#e6e6e6"><rect
       style="fill:#e6e6e6;fill-opacity:1;stroke:none"
       id="rect4182"
       width="19.584999"
       height="1.8332957"
       x="14.666367"
       y="28.312704" /><rect
       y="31.312704"
       x="14.666367"
       height="1.8332957"
       width="14.611"
       id="rect4184"
       style="fill:#e6e6e6;fill-opacity:1;stroke:none" /></g><circle
     style="fill:#00aa88;fill-opacity:0.70949719;stroke:none"
     id="circle4186"
     cx="9.6441927"
     cy="70.729355"
     r="3.2591922" /><g
     style="fill:#e6e6e6"
     id="g4188"
     transform="translate(0.40000003,40)"><rect
       y="28.312704"
       x="14.666367"
       height="1.8332957"
       width="22.985001"
       id="rect4190"
       style="fill:#e6e6e6;fill-opacity:1;stroke:none" /><rect
       style="fill:#e6e6e6;fill-opacity:1;stroke:none"
       id="rect4192"
       width="24.110998"
       height="1.8332957"
       x="14.666367"
       y="31.312704" /></g><g
     transform="translate(0.40000003,46)"
     id="g4194"
     style="fill:#e6e6e6"><rect
       style="fill:#e6e6e6;fill-opacity:1;stroke:none"
       id="rect4196"
       width="19.584999"
       height="1.8332957"
       x="14.666367"
       y="28.312704" /></g></svg>