<?xml version="1.0" encoding="UTF-8" standalone="no"?>
<svg
   xmlns:dc="http://purl.org/dc/elements/1.1/"
   xmlns:cc="http://creativecommons.org/ns#"
   xmlns:rdf="http://www.w3.org/1999/02/22-rdf-syntax-ns#"
   xmlns:svg="http://www.w3.org/2000/svg"
   xmlns="http://www.w3.org/2000/svg"
   xmlns:sodipodi="http://sodipodi.sourceforge.net/DTD/sodipodi-0.dtd"
   xmlns:inkscape="http://www.inkscape.org/namespaces/inkscape"
   version="1.0"
   x="0px"
   y="0px"
   viewBox="0 0 35 70"
   enable-background="new 0 0 50.938 100"
   xml:space="preserve"
   id="svg2"
   inkscape:version="0.91 r13725"
   sodipodi:docname="messages_tag.svg"
   width="35"
   height="70"><metadata
     id="metadata14"><rdf:RDF><cc:Work
         rdf:about=""><dc:format>image/svg+xml</dc:format><dc:type
           rdf:resource="http://purl.org/dc/dcmitype/StillImage" /><dc:title></dc:title></cc:Work></rdf:RDF></metadata><defs
     id="defs12"><filter
       inkscape:collect="always"
       style="color-interpolation-filters:sRGB"
       id="filter4230"
       x="-0.066238366"
       width="1.1324767"
       y="-0.078859463"
       height="1.1577189"><feGaussianBlur
         inkscape:collect="always"
         stdDeviation="0.56654067"
         id="feGaussianBlur4232" /></filter></defs><sodipodi:namedview
     pagecolor="#ffffff"
     bordercolor="#666666"
     borderopacity="1"
     objecttolerance="10"
     gridtolerance="10"
     guidetolerance="10"
     inkscape:pageopacity="0"
     inkscape:pageshadow="2"
     inkscape:window-width="1195"
     inkscape:window-height="706"
     id="namedview10"
     showgrid="false"
     inkscape:zoom="4.650006"
     inkscape:cx="30.033458"
     inkscape:cy="41.905783"
     inkscape:window-x="55"
     inkscape:window-y="46"
     inkscape:window-maximized="0"
     inkscape:current-layer="svg2" /><path
     sodipodi:nodetypes="sssscccsssss"
     inkscape:connector-curvature="0"
     id="path3384"
     d="m 18.445218,2.491732 c -0.902808,0 -1.630859,0.726099 -1.630859,1.628907 l 0,10.740233 c 0,0.902808 0.728051,1.63086 1.630859,1.63086 l 8.621094,0 c 4.590718,2.233165 5.737408,3.242035 5.737408,3.242035 l -0.921002,-3.242035 3.830078,0 c 0.902808,0 1.628906,-0.728052 1.628906,-1.63086 l 0,-10.740233 c 0,-0.902808 -0.726098,-1.628907 -1.628906,-1.628907 z"
     style="fill:#1a1a1a;fill-opacity:0.50837989;stroke:none;filter:url(#filter4230)"
     transform="matrix(0.94887062,0,0,0.95961616,-8.615517,1.390002)" /><path
     style="fill:#ffffff;fill-opacity:1;stroke:none"
     d="m 8.445218,3.191965 c -0.902808,0 -1.630859,0.726099 -1.630859,1.628906 l 0,10.740234 c 0,0.902808 0.728051,1.63086 1.630859,1.63086 l 8.621094,0 C 21.65703,19.42513 22.80372,20.434 22.80372,20.434 l -0.921002,-3.242035 3.830078,0 c 0.902808,0 1.628906,-0.728052 1.628906,-1.63086 l 0,-10.740234 c 0,-0.902807 -0.726098,-1.628906 -1.628906,-1.628906 z"
     id="rect4202"
     inkscape:connector-curvature="0"
     sodipodi:nodetypes="sssscccsssss" /><flowRoot
     xml:space="preserve"
     id="flowRoot4208"
     style="font-style:normal;font-weight:normal;font-size:5px;line-height:125%;font-family:sans-serif;letter-spacing:0px;word-spacing:0px;fill:#000000;fill-opacity:1;stroke:none;stroke-width:1px;stroke-linecap:butt;stroke-linejoin:miter;stroke-opacity:1"
     transform="translate(0,-30)"><flowRegion
       id="flowRegion4210"><rect
         id="rect4212"
         width="37.689396"
         height="5.5857916"
         x="8.4080868"
         y="15.860338" /></flowRegion><flowPara
       id="flowPara4214">Diadaadad</flowPara></flowRoot><text
     xml:space="preserve"
     style="font-style:normal;font-weight:normal;font-size:5px;line-height:125%;font-family:sans-serif;letter-spacing:0px;word-spacing:0px;fill:#000000;fill-opacity:1;stroke:none;stroke-width:1px;stroke-linecap:butt;stroke-linejoin:miter;stroke-opacity:1"
     x="34.10273"
     y="-11.140974"
     id="text4216"
     sodipodi:linespacing="125%"><tspan
       sodipodi:role="line"
       id="tspan4218"
       x="34.10273"
       y="-11.140974" /></text>
<rect
     style="opacity:1;fill:#cccccc;fill-opacity:0.50837989;stroke:none"
     id="rect4258"
     width="15.168561"
     height="1.4446247"
     x="9.0611095"
     y="5.6629181" /><rect
     y="7.9633751"
     x="9.0611095"
     height="1.4446247"
     width="12.051212"
     id="rect4260"
     style="opacity:1;fill:#cccccc;fill-opacity:0.50837989;stroke:none" /><rect
     style="opacity:1;fill:#cccccc;fill-opacity:0.50837989;stroke:none"
     id="rect4262"
     width="12.051212"
     height="1.4446247"
     x="9.0611095"
     y="10.463375" /><polygon
     transform="matrix(0,-0.26682572,-0.33145368,0,28.040981,16.512652)"
     points="5,22 12,15 19,22 19,2 5,2 "
     id="polygon4"
     style="fill:#ff5555" /><path
     transform="matrix(0.94887062,0,0,0.95961616,-8.615517,25.390002)"
     style="fill:#1a1a1a;fill-opacity:0.50837989;stroke:none;filter:url(#filter4230)"
     d="m 18.445218,2.491732 c -0.902808,0 -1.630859,0.726099 -1.630859,1.628907 l 0,10.740233 c 0,0.902808 0.728051,1.63086 1.630859,1.63086 l 8.621094,0 c 4.590718,2.233165 5.737408,3.242035 5.737408,3.242035 l -0.921002,-3.242035 3.830078,0 c 0.902808,0 1.628906,-0.728052 1.628906,-1.63086 l 0,-10.740233 c 0,-0.902808 -0.726098,-1.628907 -1.628906,-1.628907 z"
     id="path4270"
     inkscape:connector-curvature="0"
     sodipodi:nodetypes="sssscccsssss" /><path
     sodipodi:nodetypes="sssscccsssss"
     inkscape:connector-curvature="0"
     id="path4272"
     d="m 8.445218,27.191965 c -0.902808,0 -1.630859,0.726099 -1.630859,1.628906 l 0,10.740234 c 0,0.902808 0.728051,1.63086 1.630859,1.63086 l 8.621094,0 C 21.65703,43.42513 22.80372,44.434 22.80372,44.434 l -0.921002,-3.242035 3.830078,0 c 0.902808,0 1.628906,-0.728052 1.628906,-1.63086 l 0,-10.740234 c 0,-0.902807 -0.726098,-1.628906 -1.628906,-1.628906 z"
     style="fill:#ffffff;fill-opacity:1;stroke:none" /><rect
     y="29.662918"
     x="9.0611095"
     height="1.4446247"
     width="15.168561"
     id="rect4274"
     style="opacity:1;fill:#cccccc;fill-opacity:0.50837989;stroke:none" /><rect
     style="opacity:1;fill:#cccccc;fill-opacity:0.50837989;stroke:none"
     id="rect4276"
     width="12.051212"
     height="1.4446247"
     x="9.0611095"
     y="31.963375" /><polygon
     style="fill:#87de87"
     id="polygon4280"
     points="19,2 5,2 5,22 12,15 19,22 "
     transform="matrix(0,-0.26682572,-0.33145368,0,28.040981,40.512652)" /><path
     sodipodi:nodetypes="sssscccsssss"
     inkscape:connector-curvature="0"
     id="path4282"
     d="m 18.445218,2.491732 c -0.902808,0 -1.630859,0.726099 -1.630859,1.628907 l 0,10.740233 c 0,0.902808 0.728051,1.63086 1.630859,1.63086 l 8.621094,0 c 4.590718,2.233165 5.737408,3.242035 5.737408,3.242035 l -0.921002,-3.242035 3.830078,0 c 0.902808,0 1.628906,-0.728052 1.628906,-1.63086 l 0,-10.740233 c 0,-0.902808 -0.726098,-1.628907 -1.628906,-1.628907 z"
     style="fill:#1a1a1a;fill-opacity:0.50837989;stroke:none;filter:url(#filter4230)"
     transform="matrix(0.94887062,0,0,0.95961616,-8.615517,49.390002)" /><path
     style="fill:#ffffff;fill-opacity:1;stroke:none"
     d="m 8.445218,51.191965 c -0.902808,0 -1.630859,0.726099 -1.630859,1.628906 l 0,10.740234 c 0,0.902808 0.728051,1.63086 1.630859,1.63086 l 8.621094,0 C 21.65703,67.42513 22.80372,68.434 22.80372,68.434 l -0.921002,-3.242035 3.830078,0 c 0.902808,0 1.628906,-0.728052 1.628906,-1.63086 l 0,-10.740234 c 0,-0.902807 -0.726098,-1.628906 -1.628906,-1.628906 z"
     id="path4284"
     inkscape:connector-curvature="0"
     sodipodi:nodetypes="sssscccsssss" /><rect
     style="opacity:1;fill:#cccccc;fill-opacity:0.50837989;stroke:none"
     id="rect4286"
     width="15.168561"
     height="1.4446247"
     x="9.0611095"
     y="53.662918" /><rect
     y="55.963375"
     x="9.0611095"
     height="1.4446247"
     width="12.051212"
     id="rect4288"
     style="opacity:1;fill:#cccccc;fill-opacity:0.50837989;stroke:none" /><polygon
     transform="matrix(0,-0.26682572,-0.33145368,0,28.040981,64.512652)"
     points="19,2 5,2 5,22 12,15 19,22 "
     id="polygon4290"
     style="fill:#ff5555;fill-opacity:1" /></svg>