<?xml version="1.0" encoding="UTF-8" standalone="no"?>
<!-- Created with Inkscape (http://www.inkscape.org/) -->

<svg
   xmlns:dc="http://purl.org/dc/elements/1.1/"
   xmlns:cc="http://creativecommons.org/ns#"
   xmlns:rdf="http://www.w3.org/1999/02/22-rdf-syntax-ns#"
   xmlns:svg="http://www.w3.org/2000/svg"
   xmlns="http://www.w3.org/2000/svg"
   xmlns:sodipodi="http://sodipodi.sourceforge.net/DTD/sodipodi-0.dtd"
   xmlns:inkscape="http://www.inkscape.org/namespaces/inkscape"
   width="200"
   height="200"
   viewBox="0 0 200 200"
   id="svg4259"
   version="1.1"
   inkscape:version="0.91 r13725"
   sodipodi:docname="first_empty.svg">
  <defs
     id="defs4261" />
  <sodipodi:namedview
     id="base"
     pagecolor="#ffffff"
     bordercolor="#666666"
     borderopacity="1.0"
     inkscape:pageopacity="0.0"
     inkscape:pageshadow="2"
     inkscape:zoom="2.1511538"
     inkscape:cx="125.58555"
     inkscape:cy="92.80442"
     inkscape:document-units="px"
     inkscape:current-layer="layer1"
     showgrid="false"
     units="px"
     inkscape:window-width="1280"
     inkscape:window-height="751"
     inkscape:window-x="0"
     inkscape:window-y="0"
     inkscape:window-maximized="1" />
  <metadata
     id="metadata4264">
    <rdf:RDF>
      <cc:Work
         rdf:about="">
        <dc:format>image/svg+xml</dc:format>
        <dc:type
           rdf:resource="http://purl.org/dc/dcmitype/StillImage" />
        <dc:title></dc:title>
      </cc:Work>
    </rdf:RDF>
  </metadata>
  <g
     inkscape:label="Camada 1"
     inkscape:groupmode="layer"
     id="layer1"
     transform="translate(0,-852.36216)">
    <path
       style="fill:#f2f2f2;fill-rule:evenodd;stroke:none;stroke-width:1px;stroke-linecap:butt;stroke-linejoin:miter;stroke-opacity:1;fill-opacity:1"
       d="m 170.43638,896.71775 1.15048,-9.03953 3.28711,-8.87519 4.27323,-7.88905 5.58808,-4.60194 7.7247,-1.97227 1.97226,1.97227 1.97226,6.40985 -0.98613,7.06728 -3.2871,6.08114 -5.42373,7.06727 -7.39598,7.56034 -1.4792,0.32871 -2.30097,-0.98613 z"
       id="path4972"
       inkscape:connector-curvature="0" />
    <g
       id="g4963"
       transform="translate(10.458134,0)">
      <path
         sodipodi:nodetypes="ccscc"
         inkscape:connector-curvature="0"
         id="path4216"
         d="m 51.654415,1005.7628 c 9.663604,-0.1714 3.369337,12.7854 -2.214244,32.328 0,0 37.199359,-9.2998 42.956404,-23.0282 5.757046,-13.7283 6.199893,-14.1712 6.199893,-14.1712 z"
         style="fill:#f2f2f2;fill-opacity:1;fill-rule:evenodd;stroke:none;stroke-width:1px;stroke-linecap:butt;stroke-linejoin:miter;stroke-opacity:1" />
      <path
         id="path4153"
         d="M 89.9531,911.23913 A 58.897332,58.897332 0 0 0 31.055705,970.13652 58.897332,58.897332 0 0 0 89.9531,1029.0339 58.897332,58.897332 0 0 0 148.85049,970.13652 58.897332,58.897332 0 0 0 89.9531,911.23913 Z"
         style="color:#000000;clip-rule:nonzero;display:inline;overflow:visible;visibility:visible;opacity:1;isolation:auto;mix-blend-mode:normal;color-interpolation:sRGB;color-interpolation-filters:linearRGB;solid-color:#000000;solid-opacity:1;fill:#f2f2f2;fill-opacity:1;fill-rule:nonzero;stroke:none;stroke-width:1.5;stroke-linecap:round;stroke-linejoin:round;stroke-miterlimit:4;stroke-dasharray:none;stroke-dashoffset:0;stroke-opacity:1;color-rendering:auto;image-rendering:auto;shape-rendering:auto;text-rendering:auto;enable-background:accumulate"
         inkscape:connector-curvature="0" />
      <g
         transform="matrix(0.43544538,0,0,0.43544538,-22.105233,649.39398)"
         id="g4155">
        <path
           inkscape:export-ydpi="300"
           inkscape:export-xdpi="300"
           sodipodi:nodetypes="ccczcsc"
           inkscape:connector-curvature="0"
           id="path4141"
           d="m 200.38158,671.50498 84.16296,-20.5103 81.33395,21.21755 c 0,0 2.54415,65.99991 -27.58283,109.62403 -30.12697,43.62413 -56.58013,41.72785 -56.58013,41.72785 0,0 -89.82097,-34.65533 -94.06449,-51.62938 -4.24351,-16.97404 12.73054,-100.42975 12.73054,-100.42975 z"
           style="fill:#e6e6e6;fill-opacity:1;fill-rule:evenodd;stroke:none;stroke-width:1px;stroke-linecap:butt;stroke-linejoin:miter;stroke-opacity:1" />
        <path
           inkscape:export-ydpi="300"
           inkscape:export-xdpi="300"
           id="path4143"
           d="m 314.95678,673.62723 -90.52848,9.19374 6.36552,98.30752 13.72399,26.77828 c 19.82427,8.95309 37.19784,15.65775 37.19784,15.65775 0,0 26.45247,1.89603 56.57944,-41.7281 11.6387,-16.85295 18.38884,-37.03765 22.30596,-55.4741 l -45.64427,-52.73509 z"
           style="fill:#cccccc;fill-opacity:1;fill-rule:evenodd;stroke:none;stroke-width:1px;stroke-linecap:butt;stroke-linejoin:miter;stroke-opacity:1"
           inkscape:connector-curvature="0" />
        <ellipse
           style="color:#000000;clip-rule:nonzero;display:inline;overflow:visible;visibility:visible;opacity:0.9;isolation:auto;mix-blend-mode:normal;color-interpolation:sRGB;color-interpolation-filters:linearRGB;solid-color:#000000;solid-opacity:1;fill:#cccccc;fill-opacity:1;fill-rule:nonzero;stroke:none;stroke-width:1.5;stroke-linecap:round;stroke-linejoin:round;stroke-miterlimit:4;stroke-dasharray:none;stroke-dashoffset:0;stroke-opacity:1;color-rendering:auto;image-rendering:auto;shape-rendering:auto;text-rendering:auto;enable-background:accumulate"
           id="path4149"
           cx="244.50426"
           cy="737.10779"
           rx="44.739079"
           ry="50.981739" />
        <path
           inkscape:connector-curvature="0"
           style="opacity:1;fill:#f9f9f9;fill-opacity:1;stroke:none;stroke-width:2;stroke-linecap:round;stroke-linejoin:miter;stroke-miterlimit:4;stroke-dasharray:none;stroke-dashoffset:0;stroke-opacity:1"
           d="m 163.98242,671.50391 c -8.43755,0 -15.23047,6.79291 -15.23047,15.23047 l 0,100.38281 c 0,8.43755 6.79292,15.22851 15.23047,15.22851 l 66.0625,0 36.81836,31.82813 0,-31.82813 40.64258,0 c 8.43756,0 15.23047,-6.79096 15.23047,-15.22851 l 0,-100.38281 c 0,-8.43755 -6.79291,-15.23047 -15.23047,-15.23047 l -143.52344,0 z m 70.35547,28.75195 c 9.05982,0 16.01702,1.83467 20.86914,5.50391 4.85212,3.66923 7.20241,9.22093 7.05078,16.65429 l -0.11328,0.28321 -15.58008,0 c 0,-4.42839 -0.94839,-7.52748 -2.84375,-9.29883 -1.85746,-1.77136 -4.98558,-2.65625 -9.38281,-2.65625 -4.01816,0 -7.02998,1.21673 -9.03906,3.65234 -2.00909,2.40398 -3.01367,6.10577 -3.01367,11.10352 l 0,20.59179 c 0,5.02938 1.07952,8.76166 3.24023,11.19727 2.16071,2.40398 5.41997,3.60547 9.7793,3.60547 3.98025,0 6.8422,-0.86966 8.58593,-2.60938 1.74374,-1.77135 2.61719,-4.90288 2.61719,-9.39453 l 15.52149,0 0.11523,0.28516 c 0.15163,7.40173 -2.12373,12.95343 -6.82422,16.65429 -4.66258,3.66924 -11.33487,5.50196 -20.01562,5.50196 -8.9082,0 -15.9778,-2.18175 -21.20899,-6.54688 -5.23119,-4.39675 -7.8457,-10.62738 -7.8457,-18.69336 l 0,-20.49804 c 0,-8.03436 2.52084,-14.26498 7.5625,-18.69336 5.07956,-4.42839 11.92046,-6.64258 20.52539,-6.64258 z"
           id="path4145" />
      </g>
    </g>
    <g
       style="fill:#f2f2f2;fill-opacity:1;stroke:none"
       id="g116"
       transform="matrix(0.51319158,0.2805392,-0.2805392,0.51319158,169.16059,848.97722)">
      <path
         style="fill:#f2f2f2;fill-opacity:1;stroke:none"
         id="path118"
         d="m 56.999,72.52 -16.457,0 -0.402,-0.874 C 39.893,71.108 34.063,58.296 32.009,43.309 29.235,23.068 34.867,8.809 48.297,2.074 l 0.672,-0.337 0.672,0.337 c 13.434,6.737 18.998,21 16.09,41.245 -2.151,14.986 -8.078,27.798 -8.329,28.336 l -0.403,0.865 z m -8.662,-3 6.731,0 C 57.963,62.82 75.49,19.271 48.97,5.103 22.449,19.268 39.63,62.789 42.487,69.52 l 5.85,0 z"
         inkscape:connector-curvature="0" />
    </g>
    <g
       style="fill:#e6e6e6;fill-opacity:1;stroke:none"
       id="g128"
       transform="matrix(0.51319158,0.2805392,-0.2805392,0.51319158,169.16059,848.97722)">
      <path
         style="fill:#e6e6e6;fill-opacity:1;stroke:none"
         id="path130"
         d="M 49.157,98.764 44.694,79.489 c 0,-2.49 2.026,-4.516 4.516,-4.516 2.492,0 4.518,2.025 4.518,4.516 l -0.041,0.35 -4.53,18.925 z M 47.7,79.345 l 1.492,6.384 1.528,-6.388 c -0.074,-0.767 -0.724,-1.368 -1.511,-1.368 -0.787,0 -1.436,0.603 -1.509,1.372 z"
         inkscape:connector-curvature="0" />
    </g>
    <g
       style="fill:#ffffff;fill-opacity:1;stroke:none"
       id="g132"
       transform="matrix(0.51319158,0.2805392,-0.2805392,0.51319158,169.16059,848.97722)">
      <path
         style="fill:#ffffff;fill-opacity:1;stroke:none"
         id="path134"
         d="m 48.773,35.509 c -4.426,0 -8.026,-3.601 -8.026,-8.026 0,-4.425 3.601,-8.025 8.026,-8.025 4.425,0 8.026,3.6 8.026,8.025 10e-4,4.425 -3.6,8.026 -8.026,8.026 z m 0,-13.051 c -2.771,0 -5.026,2.254 -5.026,5.025 0,2.771 2.255,5.026 5.026,5.026 2.771,0 5.026,-2.254 5.026,-5.026 10e-4,-2.771 -2.254,-5.025 -5.026,-5.025 z"
         inkscape:connector-curvature="0" />
    </g>
    <path
       style="fill:none;fill-rule:evenodd;stroke:#e6e6e6;stroke-width:1.74178147;stroke-linecap:butt;stroke-linejoin:miter;stroke-miterlimit:4;stroke-dasharray:none;stroke-opacity:1"
       d="m 165.68825,919.91121 c 0.73646,0.8734 1.21964,-5.43808 1.37648,-4.30643 0.15684,1.13164 -0.0132,2.30668 -0.48435,3.34746 -0.47118,1.04077 -1.24194,1.94385 -2.19577,2.57268 -0.95383,0.62883 -2.08757,0.98134 -3.2298,1.00423 -1.39858,0.0281 -2.75656,-0.42312 -4.13636,-0.65327 -0.68989,-0.11507 -1.39469,-0.17502 -2.08909,-0.0913 -0.69441,0.0837 -1.38092,0.31742 -1.93473,0.74461 -0.50962,0.39312 -0.89263,0.94138 -1.11526,1.54527 -0.22263,0.60391 -0.2876,1.26148 -0.21814,1.90132 0.13892,1.27978 0.80431,2.45761 1.6657,3.4142 1.72278,1.91313 4.18168,3.01411 6.01451,4.82212 2.25183,2.22138 3.41442,5.49894 3.06567,8.64277 -0.34875,3.14378 -2.20143,6.08687 -4.88535,7.76068"
       id="path4180"
       inkscape:connector-curvature="0"
       sodipodi:nodetypes="cscscscccssssc" />
    <g
       id="g4212"
       transform="matrix(0.43544538,0,0,0.43544538,65.854308,703.8424)">
      <path
         id="path4200"
         d="m 40.630859,366.00391 c -4.45575,0 -7.919922,3.63115 -7.919921,7.92187 l 0,56.76953 c 0,4.45575 3.629201,7.91992 7.919921,7.91992 l 15.513672,0 c 2.64045,0 4.621094,2.14568 4.621094,4.6211 l 0,17.16211 24.09375,-20.62696 c 0.82515,-0.82513 1.815503,-1.15625 2.970703,-1.15625 l 42.576172,0 c 4.45575,0 7.92187,-3.6292 7.92187,-7.91992 l 0,-56.76953 c 0,-4.45575 -3.63115,-7.92187 -7.92187,-7.92187 l -89.775391,0 z"
         style="fill:#f2f2f2;fill-opacity:1"
         inkscape:connector-curvature="0" />
      <path
         inkscape:connector-curvature="0"
         id="rect4195"
         d="m 60.460362,391.32545 c -5.44591,0 -9.90234,4.45643 -9.90234,9.90234 0,5.44592 4.45643,9.90235 9.90234,9.90235 5.44592,0 9.90039,-4.45643 9.90039,-9.90235 0,-5.44591 -4.45447,-9.90234 -9.90039,-9.90234 z m 24.09375,0 c -5.44591,0 -9.90234,4.45643 -9.90234,9.90234 0,5.44592 4.45643,9.90235 9.90234,9.90235 5.44592,0 9.90039,-4.45643 9.90039,-9.90235 0,-5.44591 -4.45447,-9.90234 -9.90039,-9.90234 z m 25.414058,0 c -5.44591,0 -9.90234,4.45643 -9.90234,9.90234 0,5.44592 4.45643,9.90235 9.90234,9.90235 5.44592,0 9.90039,-4.45643 9.90039,-9.90235 0,-5.44591 -4.45447,-9.90234 -9.90039,-9.90234 z m -49.507808,3.30078 c 3.63061,0 6.59961,2.97095 6.59961,6.60156 0,3.63061 -2.969,6.60157 -6.59961,6.60157 -3.63061,0 -6.60156,-2.97096 -6.60156,-6.60157 0,-3.63061 2.97095,-6.60156 6.60156,-6.60156 z m 24.09375,0 c 3.63061,0 6.59961,2.97095 6.59961,6.60156 0,3.63061 -2.969,6.60157 -6.59961,6.60157 -3.63061,0 -6.60156,-2.97096 -6.60156,-6.60157 0,-3.63061 2.97095,-6.60156 6.60156,-6.60156 z m 25.414058,0 c 3.63061,0 6.60157,2.97095 6.60157,6.60156 0,3.63061 -2.97096,6.60157 -6.60157,6.60157 -3.63061,0 -6.60156,-2.97096 -6.60156,-6.60157 0,-3.63061 2.97095,-6.60156 6.60156,-6.60156 z"
         style="color:#000000;clip-rule:nonzero;display:inline;overflow:visible;visibility:visible;opacity:0.9;isolation:auto;mix-blend-mode:normal;color-interpolation:sRGB;color-interpolation-filters:linearRGB;solid-color:#000000;solid-opacity:1;fill:#ffffff;fill-opacity:1;fill-rule:nonzero;stroke:none;stroke-width:4;stroke-linecap:round;stroke-linejoin:round;stroke-miterlimit:4;stroke-dasharray:none;stroke-dashoffset:0;stroke-opacity:1;color-rendering:auto;image-rendering:auto;shape-rendering:auto;text-rendering:auto;enable-background:accumulate" />
    </g>
    <g
       id="g4252"
       transform="matrix(0.43432916,-0.04160248,0.04160248,0.43432916,-72.95704,678.9759)">
      <path
         id="path10"
         d="m 185.69531,468.6543 c -12.11791,2.6035 -24.01814,7.99125 -32.93359,16.75781 -8.91707,9.12574 -9.63579,22.88919 -7.73828,34.82422 1.42213,10.93865 7.33067,20.43082 12.66797,29.83008 3.59854,6.21812 4.52091,13.45309 4.20703,20.51757 l 0,16.85743 48.68164,0 0,-21.22461 c -0.42955,-10.99377 6.72244,-19.92825 11.45508,-29.20703 5.7693,-11.57307 7.74749,-25.18953 5.09179,-37.86719 -2.32362,-10.94937 -11.44104,-18.65388 -20.98047,-23.51758 -6.44755,-3.1563 -13.25902,-6.24672 -20.45117,-6.9707 z"
         style="fill:#f2f2f2;fill-opacity:1"
         inkscape:connector-curvature="0" />
      <rect
         style="fill:#f2f2f2;fill-opacity:1"
         id="rect12"
         height="4.4256964"
         width="44.531361"
         y="592.51862"
         x="163.96935" />
      <path
         sodipodi:nodetypes="cccccccc"
         inkscape:connector-curvature="0"
         id="path4247"
         d="m 205.91016,504.16406 -23.90039,27.9668 -16.27183,-5.59386 44.84214,48.64464 0,-8.96484 c -0.42955,-10.99377 6.72244,-19.92825 11.45508,-29.20703 1.60051,-3.21058 2.8975,-6.58154 3.89648,-10.04297 z"
         style="fill:#cccccc;fill-opacity:1;fill-rule:evenodd;stroke:none;stroke-width:1px;stroke-linecap:butt;stroke-linejoin:miter;stroke-opacity:1" />
      <polygon
         style="fill:#ffffff"
         id="polygon16"
         points="15.07,15.585 21.567,7.946 19.999,6.628 14.905,12.619 12.764,10.604 11.352,12.086 "
         transform="matrix(4.4256966,0,0,4.4256966,115.42827,473.60448)" />
      <rect
         style="fill:#f2f2f2;fill-opacity:1"
         x="163.96935"
         y="601.37"
         width="44.531361"
         height="4.4256964"
         id="rect4170" />
    </g>
    <ellipse
       style="color:#000000;clip-rule:nonzero;display:inline;overflow:visible;visibility:visible;opacity:0.9;isolation:auto;mix-blend-mode:normal;color-interpolation:sRGB;color-interpolation-filters:linearRGB;solid-color:#000000;solid-opacity:1;fill:#ffffff;fill-opacity:1;fill-rule:nonzero;stroke:none;stroke-width:4;stroke-linecap:round;stroke-linejoin:round;stroke-miterlimit:4;stroke-dasharray:none;stroke-dashoffset:0;stroke-opacity:1;color-rendering:auto;image-rendering:auto;shape-rendering:auto;text-rendering:auto;enable-background:accumulate"
       id="path4984"
       cx="186.54318"
       cy="876.91296"
       rx="3.2871046"
       ry="3.204927" />
    <g
       id="g4990">
      <g
         transform="matrix(0.51319158,0.2805392,-0.2805392,0.51319158,169.16059,848.97722)"
         id="g124"
         style="fill:#e6e6e6;fill-opacity:1;stroke:none">
        <path
           inkscape:connector-curvature="0"
           d="M 72.024,75.395 55.097,69.963 61.883,49.606 72.024,75.395 Z m -13.122,-7.362 8.015,2.572 -4.801,-12.211 -3.214,9.639 z"
           id="path126"
           style="fill:#e6e6e6;fill-opacity:1;stroke:none" />
      </g>
      <path
         inkscape:connector-curvature="0"
         id="path4986"
         d="m 179.31156,899.8405 5.58808,-4.43759 -0.49307,9.53261 -2.13662,-0.98614 z"
         style="fill:#e6e6e6;fill-rule:evenodd;stroke:none;stroke-width:1px;stroke-linecap:butt;stroke-linejoin:miter;stroke-opacity:1;fill-opacity:1" />
    </g>
    <g
       id="g4995"
       transform="matrix(-0.54119611,-0.84089641,-0.84089641,0.54119611,1024.4909,559.22815)">
      <g
         style="fill:#e6e6e6;fill-opacity:1;stroke:none"
         id="g4997"
         transform="matrix(0.51319158,0.2805392,-0.2805392,0.51319158,169.16059,848.97722)">
        <path
           style="fill:#e6e6e6;fill-opacity:1;stroke:none"
           id="path4999"
           d="M 72.024,75.395 55.097,69.963 61.883,49.606 72.024,75.395 Z m -13.122,-7.362 8.015,2.572 -4.801,-12.211 -3.214,9.639 z"
           inkscape:connector-curvature="0" />
      </g>
      <path
         style="fill:#e6e6e6;fill-opacity:1;fill-rule:evenodd;stroke:none;stroke-width:1px;stroke-linecap:butt;stroke-linejoin:miter;stroke-opacity:1"
         d="m 179.31156,899.8405 5.58808,-4.43759 -0.49307,9.53261 -2.13662,-0.98614 z"
         id="path5001"
         inkscape:connector-curvature="0" />
    </g>
  </g>
</svg>
